<svg width="120" height="121" viewBox="0 0 120 121" fill="none" xmlns="http://www.w3.org/2000/svg">
<rect y="0.5" width="120" height="120" rx="60" fill="#F1B562"/>
<path d="M92.2814 78.5594L65.2904 27.7004C64.7845 26.735 64.024 25.9265 63.0915 25.3623C62.1589 24.7982 61.0898 24.5 59.9999 24.5C58.91 24.5 57.8408 24.7982 56.9083 25.3623C55.9757 25.9265 55.2153 26.735 54.7094 27.7004L27.7184 78.5594C27.2197 79.4913 26.9723 80.537 27.0007 81.5936C27.0291 82.6502 27.3323 83.6811 27.8804 84.5849C28.4083 85.4748 29.1591 86.2116 30.0587 86.7227C30.9584 87.2338 31.9757 87.5015 33.0104 87.4994H86.9894C88.0241 87.5015 89.0414 87.2338 89.941 86.7227C90.8407 86.2116 91.5915 85.4748 92.1194 84.5849C92.6675 83.6811 92.9706 82.6502 92.999 81.5936C93.0274 80.537 92.7801 79.4913 92.2814 78.5594ZM63.4289 43.9994L61.7144 68.8559H58.2854L56.5709 43.9994H63.4289ZM59.9999 81.4994C59.1099 81.4994 58.2398 81.2355 57.4998 80.741C56.7598 80.2465 56.183 79.5437 55.8424 78.7215C55.5018 77.8992 55.4127 76.9944 55.5864 76.1215C55.76 75.2486 56.1886 74.4468 56.8179 73.8174C57.4472 73.1881 58.2491 72.7595 59.122 72.5859C59.9949 72.4122 60.8997 72.5013 61.722 72.8419C62.5442 73.1825 63.247 73.7593 63.7415 74.4993C64.236 75.2393 64.4999 76.1094 64.4999 76.9994C64.4999 78.1929 64.0258 79.3375 63.1819 80.1814C62.338 81.0253 61.1934 81.4994 59.9999 81.4994Z" fill="white"/>
</svg>
