<svg width="16" height="16" viewBox="0 0 16 16" fill="none" xmlns="http://www.w3.org/2000/svg">
<path fill-rule="evenodd" clip-rule="evenodd" d="M7.34766 1.82935C6.68462 1.82935 6.04873 2.09274 5.57989 2.56158C5.11105 3.03042 4.84766 3.6663 4.84766 4.32935V6.82935H9.84766V4.32935C9.84766 3.6663 9.58426 3.03042 9.11542 2.56158C8.64658 2.09274 8.0107 1.82935 7.34766 1.82935ZM10.8477 6.82935V4.32935C10.8477 3.40109 10.4789 2.51085 9.82253 1.85447C9.16615 1.19809 8.27591 0.829346 7.34766 0.829346C6.4194 0.829346 5.52916 1.19809 4.87278 1.85447C4.21641 2.51085 3.84766 3.40109 3.84766 4.32935V6.82935H2.34766C1.94983 6.82935 1.5683 6.98738 1.287 7.26869C1.00569 7.54999 0.847656 7.93152 0.847656 8.32935V14.3293C0.847656 14.7272 1.00569 15.1087 1.287 15.39C1.5683 15.6713 1.94983 15.8293 2.34766 15.8293H12.3477C12.7455 15.8293 13.127 15.6713 13.4083 15.39C13.6896 15.1087 13.8477 14.7272 13.8477 14.3293V13.7788C14.3244 13.6815 14.7662 13.4463 15.1154 13.0971C15.5843 12.6283 15.8477 11.9924 15.8477 11.3293C15.8477 10.6663 15.5843 10.0304 15.1154 9.56158C14.7662 9.21239 14.3244 8.97716 13.8477 8.87985V8.32935C13.8477 7.93152 13.6896 7.54999 13.4083 7.26869C13.127 6.98738 12.7455 6.82935 12.3477 6.82935H10.8477ZM2.34766 7.82935C2.21505 7.82935 2.08787 7.88202 1.9941 7.97579C1.90033 8.06956 1.84766 8.19674 1.84766 8.32935V14.3293C1.84766 14.462 1.90033 14.5891 1.9941 14.6829C2.08787 14.7767 2.21505 14.8293 2.34766 14.8293H12.3477C12.4803 14.8293 12.6074 14.7767 12.7012 14.6829C12.795 14.5891 12.8477 14.462 12.8477 14.3293V13.8293H9.34766C8.68461 13.8293 8.04873 13.566 7.57989 13.0971C7.11105 12.6283 6.84766 11.9924 6.84766 11.3293C6.84766 10.6663 7.11105 10.0304 7.57989 9.56158C8.04873 9.09274 8.68461 8.82935 9.34766 8.82935H12.8477V8.32935C12.8477 8.19674 12.795 8.06956 12.7012 7.97579C12.6074 7.88202 12.4803 7.82935 12.3477 7.82935H2.34766ZM9.34766 9.82935C8.94983 9.82935 8.5683 9.98738 8.287 10.2687C8.00569 10.55 7.84766 10.9315 7.84766 11.3293C7.84766 11.7272 8.00569 12.1087 8.287 12.39C8.5683 12.6713 8.94983 12.8293 9.34766 12.8293H12.8477V9.82935H9.34766ZM13.8477 9.91513V12.7436C14.0566 12.6697 14.2486 12.5497 14.4083 12.39C14.6896 12.1087 14.8477 11.7272 14.8477 11.3293C14.8477 10.9315 14.6896 10.55 14.4083 10.2687C14.2486 10.109 14.0566 9.98901 13.8477 9.91513ZM11.8477 11.8293H10.8477V10.8293H11.8477V11.8293ZM9.84766 11.8293H8.84766V10.8293H9.84766V11.8293Z" fill="white"/>
</svg>
