<svg width="30" height="30" viewBox="0 0 30 30" fill="none" xmlns="http://www.w3.org/2000/svg">
<rect width="30" height="30" rx="6" fill="#F1B562"/>
<path fill-rule="evenodd" clip-rule="evenodd" d="M10.1807 8.24999C9.64816 7.71745 8.78476 7.71745 8.25223 8.24999C7.71969 8.78252 7.71969 9.64593 8.25223 10.1785L13.0728 14.999L8.25096 19.8208C7.71843 20.3534 7.71843 21.2168 8.25096 21.7493C8.7835 22.2818 9.6469 22.2818 10.1794 21.7493L15.0013 16.9275L19.8231 21.7493C20.3556 22.2818 21.219 22.2818 21.7515 21.7493C22.2841 21.2168 22.2841 20.3534 21.7515 19.8208L16.9297 14.999L21.7503 10.1785C22.2828 9.64593 22.2828 8.78253 21.7503 8.24999C21.2177 7.71746 20.3543 7.71746 19.8218 8.24999L15.0013 13.0705L10.1807 8.24999Z" fill="white"/>
</svg>
