<svg width="12" height="12" viewBox="0 0 12 12" fill="none" xmlns="http://www.w3.org/2000/svg">
<path fill-rule="evenodd" clip-rule="evenodd" d="M11.4722 2.63826C11.8818 2.22864 11.8818 1.5645 11.4722 1.15488C11.0625 0.74525 10.3984 0.74525 9.98879 1.15488L6.28094 4.86272L2.57383 1.15562C2.16421 0.74599 1.50007 0.74599 1.09045 1.15562C0.680823 1.56524 0.680823 2.22938 1.09045 2.639L4.79755 6.34611L1.08847 10.0552C0.678843 10.4648 0.678843 11.129 1.08847 11.5386C1.49809 11.9482 2.16223 11.9482 2.57186 11.5386L6.28094 7.82949L9.99077 11.5393C10.4004 11.9489 11.0645 11.9489 11.4742 11.5393C11.8838 11.1297 11.8838 10.4656 11.4742 10.0559L7.76433 6.34611L11.4722 2.63826Z" fill="white"/>
</svg>
