<svg width="30" height="29" viewBox="0 0 30 29" fill="none" xmlns="http://www.w3.org/2000/svg">
<path d="M22.0267 10.0205H7.94607C7.57263 10.0205 7.21448 10.1688 6.95042 10.4329C6.68636 10.6969 6.53801 11.0551 6.53801 11.4285C6.53801 11.802 6.68636 12.1601 6.95042 12.4242C7.21448 12.6882 7.57263 12.8366 7.94607 12.8366H22.0267C22.4001 12.8366 22.7582 12.6882 23.0223 12.4242C23.2864 12.1601 23.4347 11.802 23.4347 11.4285C23.4347 11.0551 23.2864 10.6969 23.0223 10.4329C22.7582 10.1688 22.4001 10.0205 22.0267 10.0205ZM16.3944 15.6527H7.94607C7.57263 15.6527 7.21448 15.801 6.95042 16.0651C6.68636 16.3292 6.53801 16.6873 6.53801 17.0608C6.53801 17.4342 6.68636 17.7923 6.95042 18.0564C7.21448 18.3205 7.57263 18.4688 7.94607 18.4688H16.3944C16.7679 18.4688 17.126 18.3205 17.3901 18.0564C17.6541 17.7923 17.8025 17.4342 17.8025 17.0608C17.8025 16.6873 17.6541 16.3292 17.3901 16.0651C17.126 15.801 16.7679 15.6527 16.3944 15.6527ZM14.9864 0.164062C13.1373 0.164062 11.3063 0.528268 9.59795 1.23588C7.88962 1.9435 6.33739 2.98067 5.02988 4.28817C2.38926 6.92879 0.905777 10.5102 0.905777 14.2446C0.893467 17.496 2.01926 20.6492 4.08799 23.1577L1.27187 25.9738C1.07649 26.1718 0.944141 26.4232 0.891516 26.6964C0.838891 26.9695 0.868351 27.2521 0.97618 27.5085C1.09313 27.7619 1.28272 27.9748 1.52088 28.1202C1.75905 28.2656 2.03504 28.337 2.31384 28.3252H14.9864C18.7208 28.3252 22.3022 26.8417 24.9428 24.2011C27.5835 21.5605 29.0669 17.979 29.0669 14.2446C29.0669 10.5102 27.5835 6.92879 24.9428 4.28817C22.3022 1.64755 18.7208 0.164063 14.9864 0.164062ZM14.9864 25.5091H5.70725L7.01675 24.1996C7.279 23.9358 7.4262 23.5789 7.4262 23.2069C7.4262 22.8349 7.279 22.4781 7.01675 22.2143C5.17302 20.3726 4.02487 17.9486 3.76792 15.3553C3.51098 12.762 4.16113 10.1599 5.6076 7.99219C7.05408 5.82451 9.20739 4.22541 11.7007 3.46733C14.194 2.70925 16.873 2.8391 19.2812 3.83475C21.6895 4.8304 23.6781 6.63025 24.9082 8.92766C26.1382 11.2251 26.5337 13.8779 26.0271 16.4342C25.5206 18.9905 24.1434 21.292 22.1302 22.9468C20.117 24.6015 17.5923 25.5071 14.9864 25.5091Z" fill="#AAACAE"/>
</svg>
