<svg width="16" height="13" viewBox="0 0 16 13" fill="none" xmlns="http://www.w3.org/2000/svg">
<path fill-rule="evenodd" clip-rule="evenodd" d="M13.5039 0.913898C13.7192 1.03822 13.8763 1.24299 13.9407 1.48315C14.005 1.72331 13.9713 1.9792 13.847 2.19452L12.7417 4.1089C12.7248 4.14443 12.7057 4.17887 12.6845 4.21202L12.6686 4.23546L9.87484 9.07483C10.1142 9.41061 10.2361 9.8159 10.2219 10.228C10.2076 10.6401 10.0579 11.036 9.79593 11.3544C9.53396 11.6728 9.17433 11.896 8.77271 11.9894C8.37109 12.0828 7.94989 12.0412 7.5743 11.871C7.1987 11.7009 6.88967 11.4117 6.69504 11.0482C6.5004 10.6847 6.43101 10.2672 6.49762 9.86024C6.56423 9.45332 6.76311 9.0797 7.06349 8.79723C7.36387 8.51475 7.74898 8.33916 8.15922 8.29765L10.5977 4.0714C9.74179 3.69787 8.80639 3.54329 7.87586 3.62162C6.94532 3.69994 6.04892 4.0087 5.26754 4.52005C4.48615 5.03139 3.84436 5.72922 3.40008 6.55059C2.95579 7.37195 2.72298 8.29101 2.72266 9.22483C2.72266 9.47348 2.62388 9.71193 2.44807 9.88775C2.27225 10.0636 2.0338 10.1623 1.78516 10.1623C1.53652 10.1623 1.29806 10.0636 1.12224 9.88775C0.946428 9.71193 0.847656 9.47348 0.847656 9.22483C0.847613 7.96154 1.16667 6.7187 1.77523 5.61165C2.38379 4.50459 3.26213 3.5692 4.32874 2.89225C5.39536 2.21531 6.61568 1.81876 7.87648 1.73939C9.13728 1.66003 10.3977 1.90043 11.5408 2.43827L12.2233 1.25702C12.2848 1.15033 12.3667 1.05679 12.4643 0.981758C12.5619 0.906722 12.6734 0.851656 12.7923 0.819705C12.9112 0.787754 13.0353 0.779545 13.1574 0.795546C13.2795 0.811547 13.3972 0.851445 13.5039 0.91296V0.913898ZM13.4917 5.04452C13.5973 4.98118 13.7143 4.93925 13.8361 4.92113C13.9579 4.90301 14.082 4.90905 14.2014 4.93891C14.3209 4.96877 14.4333 5.02186 14.5322 5.09516C14.6311 5.16845 14.7146 5.26051 14.778 5.36609C15.4778 6.53189 15.8476 7.86603 15.8477 9.22577C15.8477 9.47441 15.7489 9.71287 15.5731 9.88869C15.3973 10.0645 15.1588 10.1633 14.9102 10.1633C14.6615 10.1633 14.4231 10.0645 14.2472 9.88869C14.0714 9.71287 13.9727 9.47441 13.9727 9.22577C13.9728 8.20595 13.6958 7.20527 13.1711 6.33077C13.0431 6.11768 13.005 5.86247 13.0651 5.62126C13.1252 5.38005 13.2787 5.1726 13.4917 5.04452V5.04452Z" fill="white"/>
</svg>
