<svg width="30" height="31" viewBox="0 0 30 31" fill="none" xmlns="http://www.w3.org/2000/svg">
<g clip-path="url(#clip0_1618_5858)">
<path fill-rule="evenodd" clip-rule="evenodd" d="M2.56489 4.05877C5.9818 0.641867 11.522 0.641867 14.9389 4.05877C14.9598 4.07969 14.9806 4.1007 15.0013 4.12179C15.0219 4.10071 15.0427 4.0797 15.0636 4.05877C18.4805 0.641867 24.0208 0.641867 27.4377 4.05877C30.8546 7.47568 30.8546 13.0159 27.4377 16.4328L14.9999 28.8705L2.56489 16.4328C2.56486 16.4328 2.56492 16.4328 2.56489 16.4328C-0.85192 13.0159 -0.851984 7.47565 2.56489 4.05877ZM13.1711 5.82654C10.7305 3.38595 6.77325 3.38595 4.33266 5.82654C1.89206 8.26713 1.89206 12.2244 4.33266 14.665L15.0001 25.3348L25.6699 14.665C28.1105 12.2244 28.1105 8.26713 25.6699 5.82654C23.2293 3.38595 19.272 3.38595 16.8314 5.82654C16.5317 6.12628 16.2702 6.44992 16.0428 6.79257L15.0013 8.36207L13.9597 6.79257C13.7324 6.45004 13.4697 6.12513 13.1711 5.82654Z" fill="#AAACAE"/>
</g>
<defs>
<clipPath id="clip0_1618_5858">
<rect width="30" height="30" fill="white" transform="translate(0 0.246094)"/>
</clipPath>
</defs>
</svg>
