<svg xmlns="http://www.w3.org/2000/svg" version="1.1" xmlns:xlink="http://www.w3.org/1999/xlink" xmlns:svgjs="http://svgjs.dev/svgjs" width="1000" height="623" viewBox="0 0 1000 623"><g transform="matrix(1,0,0,1,-0.6060606060606233,0.2522267206477409)"><svg viewBox="0 0 396 247" data-background-color="#ffffff" preserveAspectRatio="xMidYMid meet" height="623" width="1000" xmlns="http://www.w3.org/2000/svg" xmlns:xlink="http://www.w3.org/1999/xlink"><g id="tight-bounds" transform="matrix(1,0,0,1,0.2400000000000091,-0.09999999999999432)"><svg viewBox="0 0 395.52 247.2" height="247.2" width="395.52"><g><svg></svg></g><g><svg viewBox="0 0 395.52 247.2" height="247.2" width="395.52"><g transform="matrix(1,0,0,1,75.54432000000001,112.22925033181522)"><svg viewBox="0 0 244.43135999999996 22.741499336369547" height="22.741499336369547" width="244.43135999999996"><g><svg viewBox="0 0 244.43135999999996 22.741499336369547" height="22.741499336369547" width="244.43135999999996"><g><svg viewBox="0 0 244.43135999999996 22.741499336369547" height="22.741499336369547" width="244.43135999999996"><g><svg viewBox="0 0 244.43135999999996 22.741499336369547" height="22.741499336369547" width="244.43135999999996"><g><svg viewBox="0 0 244.43135999999996 22.741499336369547" height="22.741499336369547" width="244.43135999999996"><g><svg viewBox="0 0 244.43135999999996 22.741499336369547" height="22.741499336369547" width="244.43135999999996"><g transform="matrix(1,0,0,1,0,0)"><svg width="244.43135999999996" viewBox="-0.15000000596046448 -35.75 384.2200012207031 35.75" height="22.741499336369547" data-palette-color="#0080ff"><path d="M39.65-2.15L50.95-2.15 50.95 0 33.1 0 25.45-24.3 17.85 0 0 0 0-2.15 11.3-2.15-0.15-34.95 8.3-34.95 15.2-14.85 21.4-34.95 29.55-34.95 35.7-14.85 42.65-34.95 51.1-34.95 39.65-2.15ZM84.75-2.15L89.05-2.15 89.05 0 76.95 0 76.95-13.75 63.05-13.75 63.05 0 50.95 0 50.95-2.15 55.25-2.15 55.25-34.95 63.05-34.95 63.05-20.35 76.95-20.35 76.95-34.95 84.75-34.95 84.75-2.15ZM88.5-2.15L93.35-2.15 93.35-34.95 118.55-34.95 118.55-28 101.15-28 101.15-20.8 116.8-20.8 116.8-14.15 101.15-14.15 101.15-6.9 119.1-6.9 119.1-2.15 123.95-2.15 123.95 0 88.5 0 88.5-2.15ZM121.19-2.15L126.04-2.15 126.04-34.95 151.24-34.95 151.24-28 133.84-28 133.84-20.8 149.49-20.8 149.49-14.15 133.84-14.15 133.84-6.9 151.79-6.9 151.79-2.15 156.64-2.15 156.64 0 121.19 0 121.19-2.15ZM181.44-2.15L186.29-2.15 186.29 0 153.89 0 153.89-2.15 158.74-2.15 158.74-34.95 166.54-34.95 166.54-6.95 181.44-6.95 181.44-2.15ZM208.34-2.15L214.74-2.15 214.74 0 182.84 0 182.84-2.15 189.64-2.15Q186.89-3.55 184.64-5.75L184.64-5.75 189.29-11.45Q194.94-6.5 199.74-6.5L199.74-6.5Q201.89-6.5 203.11-7.43 204.34-8.35 204.34-9.93 204.34-11.5 203.04-12.43 201.74-13.35 197.89-14.3L197.89-14.3Q191.79-15.75 188.96-18.07 186.14-20.4 186.14-25.38 186.14-30.35 189.71-33.05 193.29-35.75 198.64-35.75L198.64-35.75Q202.14-35.75 205.64-34.55 209.14-33.35 211.74-31.15L211.74-31.15 207.79-25.45Q203.24-28.9 198.39-28.9L198.39-28.9Q196.44-28.9 195.31-27.98 194.19-27.05 194.19-25.53 194.19-24 195.56-23.1 196.94-22.2 201.91-20.98 206.89-19.75 209.64-17.3 212.39-14.85 212.39-10.5L212.39-10.5Q212.39-5.1 208.34-2.15L208.34-2.15ZM242.04-2.15L253.84-2.15 253.84 0 214.19 0 214.19-2.15 219.04-2.15 219.04-34.95 231.39-34.95Q240.74-34.95 245.74-30.38 250.74-25.8 250.74-17.5L250.74-17.5Q250.74-6.3 242.04-2.15L242.04-2.15ZM231.79-6.9Q237.14-6.9 240.01-9.6 242.89-12.3 242.89-17.45 242.89-22.6 240.01-25.38 237.14-28.15 231.19-28.15L231.19-28.15 226.84-28.15 226.84-6.9 231.79-6.9ZM253.28-2.15L258.13-2.15 258.13-34.95 283.33-34.95 283.33-28 265.93-28 265.93-20.8 281.58-20.8 281.58-14.15 265.93-14.15 265.93-6.9 283.88-6.9 283.88-2.15 288.73-2.15 288.73 0 253.28 0 253.28-2.15ZM323.08-2.15L328.88-2.15 328.88 0 315.73 0 312.48-7.55 297.83-7.55 294.58 0 281.43 0 281.43-2.15 287.18-2.15 301.38-34.95 308.93-34.95 323.08-2.15ZM309.53-14.4L305.18-24.55 300.78-14.4 309.53-14.4ZM350.78-2.15L355.63-2.15 355.63 0 323.23 0 323.23-2.15 328.08-2.15 328.08-34.95 335.88-34.95 335.88-6.95 350.78-6.95 350.78-2.15ZM377.68-2.15L384.07-2.15 384.07 0 352.18 0 352.18-2.15 358.98-2.15Q356.23-3.55 353.98-5.75L353.98-5.75 358.63-11.45Q364.28-6.5 369.07-6.5L369.07-6.5Q371.23-6.5 372.45-7.43 373.68-8.35 373.68-9.93 373.68-11.5 372.38-12.43 371.07-13.35 367.23-14.3L367.23-14.3Q361.13-15.75 358.3-18.07 355.48-20.4 355.48-25.38 355.48-30.35 359.05-33.05 362.63-35.75 367.98-35.75L367.98-35.75Q371.48-35.75 374.98-34.55 378.48-33.35 381.07-31.15L381.07-31.15 377.13-25.45Q372.57-28.9 367.73-28.9L367.73-28.9Q365.78-28.9 364.65-27.98 363.53-27.05 363.53-25.53 363.53-24 364.9-23.1 366.28-22.2 371.25-20.98 376.23-19.75 378.98-17.3 381.73-14.85 381.73-10.5L381.73-10.5Q381.73-5.1 377.68-2.15L377.68-2.15Z" opacity="1" transform="matrix(1,0,0,1,0,0)" fill="#0080ff" class="undefined-text-0" data-fill-palette-color="primary" id="text-0"></path></svg></g></svg></g></svg></g></svg></g></svg></g></svg></g></svg></g><path d="M169.937 106.229L169.937 40.787 4.31 40.787 4.31 206.413 169.937 206.413 169.937 140.971 167.886 140.971 167.886 204.363 6.361 204.363 6.361 42.837 167.886 42.837 167.886 106.229Z" fill="#0080ff" stroke="transparent" data-fill-palette-color="primary"></path></svg></g><defs></defs></svg><rect width="395.52" height="247.2" fill="none" stroke="none" visibility="hidden"></rect></g></svg></g></svg>