<svg width="17" height="17" viewBox="0 0 17 17" fill="none" xmlns="http://www.w3.org/2000/svg">
<g clip-path="url(#clip0_2018_5915)">
<path d="M14.7234 1.49634L10.7311 3.43384L7.03112 1.93384L1.97192 2.24634L0.347656 15.5588L5.57832 15.1421L11.3839 16.4963L16.3477 14.8088L14.7234 1.49634ZM14.2815 2.27359L15.7701 14.4733L11.4863 15.9296L11.4626 15.4611L15.2415 14.1236L13.9503 2.97534L10.8983 4.33234L10.8775 3.92584L10.9765 3.87809L14.2815 2.27359ZM11.1783 9.85859C11.2375 9.74059 11.2957 9.57484 11.3234 9.34234C11.3234 9.34234 11.6173 9.35584 11.9789 10.0946C11.9789 10.0946 12.1367 10.0798 12.0581 9.59759C12.0581 9.59759 12.6226 9.38434 12.3181 8.44659C12.3181 8.44659 12.7917 9.05809 12.6343 8.26309C12.6343 8.26309 13.1538 7.66609 12.5333 7.26909C12.5333 7.26909 12.5546 6.82884 12.9277 6.88534C12.9277 6.88534 13.3005 5.97634 13.1207 7.05559C13.1207 7.05559 13.1314 7.26909 13.3685 7.50984C13.3685 7.50984 13.4706 7.15509 13.2895 6.77259C13.2895 6.77259 13.6626 6.11809 13.6285 5.55084C13.6285 5.55084 12.4199 5.97109 11.0751 5.84559C11.0751 5.84559 11.1407 5.61109 10.957 5.47934L10.9194 4.73809L10.9514 4.72384L13.6138 3.54034L14.8106 13.8756L11.4429 15.0678L11.1783 9.85859ZM10.6882 5.46009C10.5493 5.64584 10.1637 6.21709 10.3981 6.55909C10.3981 6.55909 10.2845 7.29984 10.1261 6.21934C10.1261 6.21934 9.86712 6.85709 9.51672 6.71484C9.51672 6.71484 9.42046 7.36034 9.19992 6.92784C9.19992 6.92784 9.38046 6.99909 9.42019 6.80034C9.42019 6.80034 8.91112 6.28909 8.60686 7.06209C8.60686 7.06209 8.35832 7.15484 8.45459 7.51734C8.45459 7.51734 8.62899 7.21834 8.71966 7.67359C8.71966 7.67359 8.81592 7.60259 8.85619 7.01984C8.85619 7.01984 9.09779 6.90684 8.91112 7.36734C8.91112 7.36734 9.46472 7.37559 8.60686 7.83584C8.60686 7.83584 8.55939 7.82834 8.52206 7.65184C8.52206 7.65184 8.39219 8.07684 8.12606 8.22759C8.12606 8.22759 8.18846 8.39734 7.99112 8.47534C7.99112 8.47534 7.88419 8.73834 8.13859 8.73834C8.13859 8.73834 8.35859 8.10634 8.77672 8.60359C8.77672 8.60359 8.85646 8.57534 8.73192 8.32659C8.73192 8.32659 8.95166 8.40559 9.03672 8.73134C9.03672 8.73134 9.17246 8.70934 9.19406 8.42609C9.19406 8.42609 9.36446 8.06409 9.64152 8.49034C9.64152 8.49034 9.27379 8.39059 9.17832 8.73834C9.17832 8.73834 9.35219 8.66709 9.46046 8.76684C9.46046 8.76684 9.47139 8.92909 9.36046 8.99184C9.40846 9.07634 9.46046 9.15734 9.53299 9.22584C9.5532 9.24348 9.56629 9.26713 9.57003 9.29278C9.57377 9.31843 9.56794 9.34451 9.55352 9.36659C9.74926 9.68059 10.1109 10.0986 10.3639 9.43134C10.3639 9.43134 10.0253 9.61159 9.91192 9.11434C9.91192 9.11434 10.5954 9.19584 10.9106 9.83859L11.1759 15.0756L5.86072 13.6781L5.94046 12.9388C6.05086 13.2041 6.18019 13.3118 6.18019 13.3118C6.03006 12.1581 6.91806 11.4188 6.91806 11.4188C7.09059 10.6268 6.65192 10.2713 6.24526 10.1113L6.45406 8.17434C6.53779 8.07659 6.58712 8.01134 6.58712 8.01134C6.55699 7.91409 6.52766 7.82884 6.49966 7.75084L6.70206 5.87134C6.87219 6.06559 6.89166 6.24209 6.84392 6.40259C6.62499 7.14084 6.90659 7.36709 6.90659 7.36709C7.07752 6.74359 7.66419 6.64409 7.66419 6.64409C7.63059 6.06109 7.99166 5.39834 7.99166 5.39834C7.59886 4.76559 7.03699 5.19234 6.74259 5.49434L6.76552 5.28209C6.82579 5.20934 6.88872 5.13009 6.95672 5.03959C6.95672 5.03959 6.90046 5.00334 6.79832 4.97684L6.97752 3.31309L10.6266 4.73109L10.6522 4.74109L10.6882 5.46009ZM6.53299 4.95134C6.35112 4.95934 6.11832 5.01809 5.84446 5.19559C5.84446 5.19559 5.71432 6.31609 6.46152 5.61384L6.37806 6.38909C6.28046 6.08309 6.04899 5.97659 6.04899 5.97659C5.82232 6.10509 5.84499 6.27509 5.84499 6.27509C6.05059 6.30409 6.17619 6.53609 6.25006 6.75359C6.20846 6.81334 6.13726 6.88159 6.01432 6.89284C6.01432 6.89284 6.15752 7.09459 6.29619 7.15109L6.28099 7.29009C5.95832 6.83684 5.81859 7.74759 5.81859 7.74759C5.02099 6.91434 6.03032 6.49734 6.03032 6.49734C5.41246 6.25259 5.12632 5.55109 5.12632 5.55109C5.09619 5.98684 4.91512 5.96759 4.91512 5.96759C3.49912 5.19159 3.24419 6.44134 3.24419 6.44134C3.46899 7.10334 2.98712 7.17909 2.98712 7.17909C3.45379 7.25459 3.69459 6.64884 3.69459 6.64884C4.65939 7.10334 4.14712 8.73159 4.14712 8.73159C4.52339 8.93909 4.62899 9.62134 4.62899 9.62134C4.89112 9.69584 5.15966 9.84634 5.34792 9.96559C5.38446 9.93484 5.42206 9.90559 5.46152 9.87834C5.02152 9.58684 5.02072 9.11484 5.02072 9.11484C5.41992 9.11484 5.84446 8.79234 6.15086 8.49584L5.98552 10.0316C5.91111 10.0141 5.8357 10.0004 5.75966 9.99084C5.68857 10.0228 5.62179 10.0626 5.56072 10.1093L5.59326 10.1331C5.14952 10.9323 5.74952 11.2528 5.84899 11.2991L5.59432 13.6616L2.06472 13.9203L3.24206 3.46684L6.71352 3.27534L6.53299 4.95134ZM5.81992 14.0571L11.1957 15.4706L11.2197 15.9428L5.75406 14.6678L5.81992 14.0571ZM10.6106 3.92984L10.6309 4.32734L7.01966 2.92409L7.06606 2.49259L10.5194 3.89284L10.6106 3.92984ZM2.45139 2.71784L6.80259 2.44909L6.75432 2.89759L2.87992 3.11109L1.61672 14.3296L5.55406 14.0403L5.48846 14.6473L0.951656 15.0091L2.45139 2.71784Z" fill="#C6623B"/>
<path d="M8.36328 10.1506C8.36328 10.1506 8.89378 10.2499 8.68153 11.2721C8.68153 11.2721 8.76628 12.0689 9.23153 11.9961C9.23153 11.9961 9.35853 10.8464 9.95178 9.9656C9.95178 9.9656 9.71128 10.2051 9.43853 9.41085C9.39728 9.44085 9.34128 9.44785 9.29453 9.40135C9.17703 9.2841 9.10603 9.13635 9.02953 8.98785C9.01868 8.96648 9.01425 8.94243 9.01678 8.9186C8.63078 8.7746 7.84903 8.6301 7.73828 9.76685C7.73853 9.76685 7.88628 10.5494 8.36328 10.1506Z" fill="#C6623B"/>
<path d="M8.12109 7.49512C8.15759 8.00712 8.22609 8.16262 8.31584 7.94987C8.40609 7.73887 8.12109 7.49512 8.12109 7.49512Z" fill="#C6623B"/>
<path d="M7.95898 7.9783C7.95898 7.9783 8.10823 7.9563 8.06548 7.76855C8.06548 7.76855 7.95898 7.77955 7.95898 7.9783Z" fill="#C6623B"/>
<path d="M7.90257 6.9491C7.90257 6.9491 7.52632 6.9491 7.65932 7.14135C7.79157 7.3331 7.90257 6.9491 7.90257 6.9491Z" fill="#C6623B"/>
<path d="M9.78338 11.6133C9.78338 11.6133 9.89838 11.3788 9.89463 11.0173C9.89463 11.0173 9.52888 11.4353 9.78338 11.6133Z" fill="#C6623B"/>
<path d="M12.1541 10.1438C12.1541 10.1438 11.8891 10.3855 11.9376 10.6058C11.9853 10.8268 12.2178 10.5623 12.1541 10.1438Z" fill="#C6623B"/>
<path d="M13.2149 10.9256C13.3311 10.7221 12.5781 10.4701 12.5781 10.4701C12.7269 10.6906 13.1094 11.1071 13.2149 10.9256Z" fill="#C6623B"/>
<path d="M12.3709 10.9691C12.5477 10.6666 11.8359 10.8113 11.8359 10.8113C11.8359 10.8113 12.3022 11.0886 12.3709 10.9691Z" fill="#C6623B"/>
<path d="M12.6505 11.0321C12.6505 11.0321 12.508 11.3509 11.9785 11.4851C11.9785 11.4851 12.0903 11.7414 11.9785 12.2246C11.9785 12.2246 12.513 11.5426 12.821 12.5291C12.821 12.5291 13.0853 12.6726 13.2705 11.7794C13.2705 11.7794 13.0483 11.4576 12.9743 11.0001C12.9745 10.9999 12.901 11.5861 12.6505 11.0321Z" fill="#C6623B"/>
<path d="M12.7549 8.12382C12.7887 8.09557 12.8149 8.08533 12.8149 8.08533C12.5557 7.66608 12.6504 8.27033 12.6504 8.27033C12.6672 8.23058 12.6869 8.20007 12.7072 8.17432C12.7209 8.35332 12.6779 8.62008 12.3984 8.87358C12.3984 8.87358 12.9977 8.64757 12.7549 8.12382Z" fill="#C6623B"/>
<path d="M8.18064 4.98509C8.31139 4.67859 7.90039 4.32959 7.90039 4.32959C7.95314 5.06634 8.05089 5.29134 8.18064 4.98509Z" fill="#C6623B"/>
<path d="M7.66992 5.02537C7.66992 5.02537 7.88267 4.99387 7.82242 4.72437C7.82242 4.72437 7.66992 4.73962 7.66992 5.02537Z" fill="#C6623B"/>
</g>
<defs>
<clipPath id="clip0_2018_5915">
<rect width="16" height="16" fill="white" transform="translate(0.347656 0.996338)"/>
</clipPath>
</defs>
</svg>
