<svg width="28" height="28" viewBox="0 0 28 28" fill="none" xmlns="http://www.w3.org/2000/svg">
<rect width="28" height="28" rx="14" fill="#E5E8E6"/>
<rect x="1.40039" y="1.40039" width="25.2" height="25.2" rx="12.6" fill="#C6623B"/>
<path d="M9.80065 7H18.2007C18.3244 7 18.4431 7.04917 18.5306 7.13668C18.6182 7.2242 18.6673 7.3429 18.6673 7.46667V8.4H9.33398V7.46667C9.33398 7.3429 9.38315 7.2242 9.47067 7.13668C9.55818 7.04917 9.67688 7 9.80065 7Z" fill="white"/>
<path d="M20.5333 9.33203H7.46667C7.3429 9.33203 7.2242 9.3812 7.13668 9.46871C7.04917 9.55623 7 9.67493 7 9.7987V20.532C7 20.6558 7.04917 20.7745 7.13668 20.862C7.2242 20.9495 7.3429 20.9987 7.46667 20.9987H20.5333C20.6571 20.9987 20.7758 20.9495 20.8633 20.862C20.9508 20.7745 21 20.6558 21 20.532V9.7987C21 9.67493 20.9508 9.55623 20.8633 9.46871C20.7758 9.3812 20.6571 9.33203 20.5333 9.33203ZM9.33333 12.832C9.33333 12.6013 9.40176 12.3757 9.52995 12.1839C9.65815 11.992 9.84036 11.8425 10.0535 11.7542C10.2667 11.6659 10.5013 11.6428 10.7276 11.6878C10.9539 11.7328 11.1618 11.8439 11.325 12.0071C11.4881 12.1702 11.5992 12.3781 11.6442 12.6044C11.6893 12.8307 11.6662 13.0653 11.5779 13.2785C11.4896 13.4917 11.34 13.6739 11.1482 13.8021C10.9563 13.9303 10.7307 13.9987 10.5 13.9987C10.1906 13.9987 9.89383 13.8758 9.67504 13.657C9.45625 13.4382 9.33333 13.1415 9.33333 12.832ZM19.0783 17.9523C19.0384 18.0268 18.979 18.089 18.9066 18.1324C18.8341 18.1758 18.7512 18.1987 18.6667 18.1987H10.7333C10.6371 18.1987 10.5432 18.1689 10.4645 18.1134C10.3858 18.058 10.3262 17.9795 10.2939 17.8889C10.2615 17.7982 10.258 17.6998 10.2838 17.607C10.3096 17.5143 10.3634 17.4318 10.4379 17.3708L15.5713 13.1708C15.6219 13.13 15.6804 13.1001 15.7431 13.0828C15.8058 13.0656 15.8714 13.0614 15.9357 13.0705C16.0001 13.0801 16.0618 13.1031 16.1168 13.138C16.1717 13.1729 16.2188 13.2189 16.2549 13.273L19.0549 17.473C19.1019 17.5433 19.1288 17.625 19.1329 17.7094C19.137 17.7938 19.1181 17.8778 19.0783 17.9523Z" fill="white"/>
</svg>
