<svg width="12" height="16" viewBox="0 0 12 16" fill="none" xmlns="http://www.w3.org/2000/svg">
<path fill-rule="evenodd" clip-rule="evenodd" d="M7.41993 0.820312V5.36801H11.9676V14.7028C11.9676 14.8297 11.9172 14.9515 11.8274 15.0413C11.7377 15.131 11.6159 15.1815 11.4889 15.1815H0.478705C0.351745 15.1815 0.229984 15.131 0.14021 15.0413C0.0504349 14.9515 0 14.8297 0 14.7028V1.29902C0 1.17206 0.0504349 1.0503 0.14021 0.960522C0.229984 0.870747 0.351745 0.820312 0.478705 0.820312H7.41993ZM5.02641 4.64995H2.87223C2.80875 4.64995 2.74787 4.67517 2.70298 4.72006C2.6581 4.76495 2.63288 4.82583 2.63288 4.88931C2.63288 4.95279 2.6581 5.01367 2.70298 5.05856C2.74787 5.10344 2.80875 5.12866 2.87223 5.12866H5.02641C5.08989 5.12866 5.15077 5.10344 5.19565 5.05856C5.24054 5.01367 5.26576 4.95279 5.26576 4.88931C5.26576 4.82583 5.24054 4.76495 5.19565 4.72006C5.15077 4.67517 5.08989 4.64995 5.02641 4.64995ZM2.87223 12.3092H9.0954C9.15888 12.3092 9.21976 12.284 9.26465 12.2391C9.30954 12.1942 9.33475 12.1334 9.33475 12.0699C9.33475 12.0064 9.30954 11.9455 9.26465 11.9006C9.21976 11.8558 9.15888 11.8305 9.0954 11.8305H2.87223C2.80875 11.8305 2.74787 11.8558 2.70298 11.9006C2.6581 11.9455 2.63288 12.0064 2.63288 12.0699C2.63288 12.1334 2.6581 12.1942 2.70298 12.2391C2.74787 12.284 2.80875 12.3092 2.87223 12.3092ZM2.87223 9.91571H9.0954C9.15888 9.91571 9.21976 9.8905 9.26465 9.84561C9.30954 9.80072 9.33475 9.73984 9.33475 9.67636C9.33475 9.61288 9.30954 9.552 9.26465 9.50711C9.21976 9.46222 9.15888 9.43701 9.0954 9.43701H2.87223C2.80875 9.43701 2.74787 9.46222 2.70298 9.50711C2.6581 9.552 2.63288 9.61288 2.63288 9.67636C2.63288 9.73984 2.6581 9.80072 2.70298 9.84561C2.74787 9.8905 2.80875 9.91571 2.87223 9.91571ZM2.87223 7.52219H9.0954C9.15888 7.52219 9.21976 7.49697 9.26465 7.45208C9.30954 7.40719 9.33475 7.34631 9.33475 7.28283C9.33475 7.21935 9.30954 7.15847 9.26465 7.11359C9.21976 7.0687 9.15888 7.04348 9.0954 7.04348H2.87223C2.80875 7.04348 2.74787 7.0687 2.70298 7.11359C2.6581 7.15847 2.63288 7.21935 2.63288 7.28283C2.63288 7.34631 2.6581 7.40719 2.70298 7.45208C2.74787 7.49697 2.80875 7.52219 2.87223 7.52219ZM7.8994 4.88967V0.960937L11.8281 4.88967H7.8994Z" fill="white"/>
</svg>
