<svg width="32" height="32" viewBox="0 0 32 32" fill="none" xmlns="http://www.w3.org/2000/svg">
<rect x="1" y="1" width="30" height="30" rx="15" fill="#C6623B"/>
<path d="M21.9479 10.8929C21.6943 10.5862 21.4122 10.3042 21.1056 10.0505C20.0024 9.13879 18.3308 9.23212 17.2994 10.2635L16.5994 10.9635L19.4149 13.7801C19.472 13.8353 19.5176 13.9013 19.5489 13.9743C19.5803 14.0473 19.5968 14.1258 19.5975 14.2053C19.5982 14.2847 19.583 14.3635 19.553 14.437C19.5229 14.5105 19.4784 14.5773 19.4223 14.6335C19.3661 14.6897 19.2993 14.7341 19.2258 14.7642C19.1523 14.7942 19.0735 14.8094 18.994 14.8087C18.9146 14.808 18.8361 14.7915 18.7631 14.7601C18.6901 14.7288 18.6241 14.6832 18.5689 14.6261L15.7535 11.81L10.2303 17.3332C9.97386 17.5879 9.77054 17.891 9.6321 18.2249C9.49367 18.5587 9.42288 18.9168 9.42384 19.2782V21.9764C9.42384 22.135 9.48687 22.2872 9.59907 22.3994C9.71126 22.5116 9.86343 22.5746 10.0221 22.5746H12.7203C13.0815 22.5755 13.4394 22.5047 13.7731 22.3664C14.1069 22.2281 14.4099 22.0249 14.6646 21.7688L21.7355 14.6991C22.7669 13.6683 22.8603 11.9961 21.9485 10.8929H21.9479Z" fill="white"/>
<rect x="1" y="1" width="30" height="30" rx="15" stroke="#E4E4E4" stroke-width="1.5"/>
</svg>
