<svg width="21" height="21" viewBox="0 0 21 21" fill="none" xmlns="http://www.w3.org/2000/svg">
<path fill-rule="evenodd" clip-rule="evenodd" d="M12.7508 8.12231C13.0233 7.84985 13.465 7.84985 13.7375 8.12231L19.9391 14.3239C20.2115 14.5963 20.2115 15.0381 19.9391 15.3105C19.6666 15.583 19.2249 15.583 18.9524 15.3105L13.2442 9.6023L7.53596 15.3105C7.2635 15.583 6.82176 15.583 6.5493 15.3105L4.56201 13.3232L1.33441 16.5508C1.06195 16.8233 0.620205 16.8233 0.347746 16.5508C0.0752874 16.2784 0.0752874 15.8366 0.347746 15.5642L4.06868 11.8432C4.34114 11.5708 4.78288 11.5708 5.05534 11.8432L7.04263 13.8305L12.7508 8.12231Z" fill="#0C65C3"/>
<path fill-rule="evenodd" clip-rule="evenodd" d="M2.70154 1.87191C2.39315 1.87191 2.09739 1.99442 1.87932 2.21248C1.66126 2.43055 1.53875 2.72631 1.53875 3.0347V17.9184C1.53875 18.2268 1.66126 18.5226 1.87932 18.7406C2.09739 18.9587 2.39315 19.0812 2.70154 19.0812H17.5853C17.8937 19.0812 18.1894 18.9587 18.4075 18.7406C18.6255 18.5226 18.7481 18.2268 18.7481 17.9184V3.0347C18.7481 2.72631 18.6255 2.43055 18.4075 2.21248C18.1894 1.99442 17.8937 1.87191 17.5853 1.87191H2.70154ZM0.892664 1.22582C1.37241 0.74608 2.02308 0.476562 2.70154 0.476562H17.5853C18.2637 0.476562 18.9144 0.74608 19.3941 1.22582C19.8739 1.70557 20.1434 2.35624 20.1434 3.0347V17.9184C20.1434 18.5969 19.8739 19.2476 19.3941 19.7273C18.9144 20.207 18.2637 20.4766 17.5853 20.4766H2.70154C2.02308 20.4766 1.37241 20.207 0.892664 19.7273C0.41292 19.2476 0.143402 18.5969 0.143402 17.9184V3.0347C0.143402 2.35624 0.41292 1.70557 0.892664 1.22582Z" fill="#0C65C3"/>
<path fill-rule="evenodd" clip-rule="evenodd" d="M6.42246 5.59457C5.78027 5.59457 5.25967 6.11517 5.25967 6.75736C5.25967 7.39955 5.78027 7.92015 6.42246 7.92015C7.06465 7.92015 7.58525 7.39955 7.58525 6.75736C7.58525 6.11517 7.06465 5.59457 6.42246 5.59457ZM3.86432 6.75736C3.86432 5.34454 5.00964 4.19922 6.42246 4.19922C7.83528 4.19922 8.9806 5.34454 8.9806 6.75736C8.9806 8.17018 7.83528 9.3155 6.42246 9.3155C5.00964 9.3155 3.86432 8.17018 3.86432 6.75736Z" fill="#0C65C3"/>
</svg>
