<svg width="21" height="21" viewBox="0 0 21 21" fill="none" xmlns="http://www.w3.org/2000/svg">
<path d="M13.053 20.4766H7.47157C2.42041 20.4766 0.262268 18.3184 0.262268 13.2673V7.68586C0.262268 2.6347 2.42041 0.476562 7.47157 0.476562H13.053C18.1041 0.476562 20.2623 2.6347 20.2623 7.68586V13.2673C20.2623 18.3184 18.1041 20.4766 13.053 20.4766ZM7.47157 1.87191C3.1832 1.87191 1.65762 3.39749 1.65762 7.68586V13.2673C1.65762 17.5556 3.1832 19.0812 7.47157 19.0812H13.053C17.3413 19.0812 18.8669 17.5556 18.8669 13.2673V7.68586C18.8669 3.39749 17.3413 1.87191 13.053 1.87191H7.47157Z" fill="#D30707"/>
<path d="M9.10865 14.5438C8.71795 14.5438 8.35516 14.4507 8.02958 14.2647C7.28539 13.8368 6.85748 12.9624 6.85748 11.8554V9.10191C6.85748 8.00423 7.28539 7.12051 8.02958 6.69261C8.77376 6.2647 9.7412 6.32982 10.6993 6.88795L13.09 8.2647C14.0389 8.81354 14.5877 9.62284 14.5877 10.4787C14.5877 11.3345 14.0389 12.1438 13.09 12.6926L10.6993 14.0694C10.1598 14.3856 9.61097 14.5438 9.10865 14.5438ZM9.11795 7.80888C8.96911 7.80888 8.83888 7.83679 8.73655 7.90191C8.43888 8.07865 8.26213 8.51586 8.26213 9.10191V11.8554C8.26213 12.4414 8.42958 12.8787 8.73655 13.0554C9.03423 13.2321 9.49934 13.1577 10.011 12.86L12.4017 11.4833C12.9133 11.1856 13.2017 10.8228 13.2017 10.4787C13.2017 10.1345 12.9133 9.76237 12.4017 9.474L10.011 8.09726C9.67609 7.90191 9.36911 7.80888 9.11795 7.80888Z" fill="#D30707"/>
</svg>
