<svg width="26" height="26" viewBox="0 0 26 26" fill="none" xmlns="http://www.w3.org/2000/svg">
<path d="M17.375 12.2266C17.8723 12.2266 18.3492 12.029 18.7008 11.6774C19.0525 11.3258 19.25 10.8488 19.25 10.3516C19.25 9.85428 19.0525 9.37737 18.7008 9.02574C18.3492 8.67411 17.8723 8.47656 17.375 8.47656C16.8777 8.47656 16.4008 8.67411 16.0492 9.02574C15.6975 9.37737 15.5 9.85428 15.5 10.3516C15.5 10.8488 15.6975 11.3258 16.0492 11.6774C16.4008 12.029 16.8777 12.2266 17.375 12.2266Z" fill="#AAACAE"/>
<path d="M8.625 12.2266C9.12228 12.2266 9.59919 12.029 9.95083 11.6774C10.3025 11.3258 10.5 10.8488 10.5 10.3516C10.5 9.85428 10.3025 9.37737 9.95083 9.02574C9.59919 8.67411 9.12228 8.47656 8.625 8.47656C8.12772 8.47656 7.65081 8.67411 7.29917 9.02574C6.94754 9.37737 6.75 9.85428 6.75 10.3516C6.75 10.8488 6.94754 11.3258 7.29917 11.6774C7.65081 12.029 8.12772 12.2266 8.625 12.2266Z" fill="#AAACAE"/>
<path d="M13 20.9766C15.85 20.9766 18.275 18.9016 19.25 15.9766H6.75C7.725 18.9016 10.15 20.9766 13 20.9766Z" fill="#AAACAE"/>
<path d="M12.9875 0.976562C6.0875 0.976562 0.5 6.57656 0.5 13.4766C0.5 20.3766 6.0875 25.9766 12.9875 25.9766C19.9 25.9766 25.5 20.3766 25.5 13.4766C25.5 6.57656 19.9 0.976562 12.9875 0.976562ZM13 23.4766C7.475 23.4766 3 19.0016 3 13.4766C3 7.95156 7.475 3.47656 13 3.47656C18.525 3.47656 23 7.95156 23 13.4766C23 19.0016 18.525 23.4766 13 23.4766Z" fill="#AAACAE"/>
</svg>
