<svg width="21" height="21" viewBox="0 0 21 21" fill="none" xmlns="http://www.w3.org/2000/svg">
<path d="M9.6116 3.03906C9.65848 3.03906 9.71707 3.0625 9.76785 3.13281C9.54129 2.80859 10.0218 2.94922 10.0491 2.64063C10.3225 2.4375 10.2249 2.30469 10.303 2.29687L10.3889 2.22656C10.221 2.28906 10.1624 2.30078 10.1155 2.30078C10.1038 2.30078 10.0921 2.30078 10.0804 2.30078C10.0686 2.30078 10.053 2.30078 10.0374 2.30078C9.97879 2.30078 9.88113 2.3125 9.65067 2.38281C9.12332 2.42187 8.74442 2.99219 8.56473 3.00781C8.38113 3.10547 8.38895 3.125 8.43192 3.125C8.44363 3.125 8.45926 3.12109 8.47488 3.12109C8.49051 3.12109 8.50223 3.11719 8.51395 3.11719C8.55692 3.11719 8.5452 3.13672 8.2952 3.25391C8.35379 3.26953 7.8577 3.48828 7.85379 3.83203C7.83817 3.96484 7.89285 4.05469 7.9827 4.05469C8.06082 4.05469 8.15848 3.99609 8.26395 3.84766C8.61551 3.44141 9.3577 3.40234 9.67801 3.15625C9.47879 3.14062 9.51785 3.03906 9.6116 3.03906ZM7.82645 3.17578C7.79129 3.17578 7.83817 3.13281 7.88895 3.08984C7.94363 3.04688 8.00613 3.00391 8.00613 3.00391C8.00613 3.00391 8.00613 3.00391 8.00223 3.00781C8.21317 2.92578 8.08426 2.90625 8.19754 2.85156C8.19363 2.85156 8.19363 2.85156 8.18973 2.85156C8.16629 2.85156 8.20926 2.82031 8.24832 2.78516C8.28738 2.75391 8.32254 2.71875 8.28738 2.71875C8.26785 2.71875 8.21707 2.73047 8.13113 2.76562C8.15848 2.72656 8.26395 2.69922 8.41238 2.61719C8.19754 2.6875 8.02957 2.73047 8.01004 2.73047C7.99442 2.73047 8.08426 2.69922 8.35379 2.61719C8.36551 2.61719 8.37723 2.62109 8.38504 2.62109C8.41238 2.62109 8.4241 2.61328 8.4202 2.60547C8.41629 2.59766 8.40067 2.59375 8.37332 2.59375C7.9866 2.625 7.69754 2.86719 7.78348 2.89844C7.83426 2.88281 7.86942 2.875 7.89285 2.875C7.94363 2.875 7.9202 2.91797 7.81863 2.98047C7.86551 3.08984 7.03738 3.37109 6.94363 3.47266C6.99051 3.44531 7.02176 3.4375 7.03738 3.4375C7.09988 3.4375 7.01785 3.55859 6.93582 3.61719C6.9866 3.66406 7.02567 3.67969 7.05692 3.67969C7.13895 3.67969 7.1741 3.56641 7.24442 3.53125C7.26004 3.5625 7.27567 3.57813 7.2952 3.57813C7.3616 3.57813 7.44363 3.41406 7.51004 3.32812C7.52957 3.34766 7.55301 3.36328 7.58426 3.36328C7.64676 3.36328 7.74051 3.3125 7.88895 3.16797C7.8577 3.17188 7.83426 3.17578 7.82645 3.17578ZM6.92801 3.89453C6.78738 3.98047 6.71317 4.01562 6.68192 4.01562C6.62332 4.01562 6.70145 3.90625 6.77176 3.79297C6.84207 3.68359 6.90457 3.57422 6.81473 3.57422C6.77176 3.57422 6.69363 3.59766 6.56863 3.66016C6.22879 3.88672 5.65457 4.51172 5.40067 4.51172C5.39285 4.51172 5.38504 4.51172 5.37723 4.51172C5.78738 4.21094 5.66629 3.62109 6.24051 3.46875C6.80692 3.14453 7.19363 3.24609 7.69754 2.875C7.5491 2.94922 7.33035 3.03125 7.27957 3.03125C7.24832 3.03125 7.2952 2.99219 7.49832 2.89453C7.47879 2.89844 7.46317 2.90234 7.45145 2.90234C7.31473 2.90234 8.34988 2.53125 8.40067 2.52344C7.97488 2.58203 7.28738 2.9375 7.19363 2.9375C7.18192 2.9375 7.18192 2.93359 7.18192 2.92578C7.19754 2.91406 7.19754 2.90625 7.18192 2.90625C7.13113 2.90625 6.9202 2.97656 6.70535 3.04688C6.49442 3.11719 6.27957 3.19141 6.2327 3.19141C6.21707 3.19141 6.21707 3.18359 6.24051 3.16797C4.39676 4.21484 2.8577 5.98047 2.37723 8.07422C2.57645 8.53125 2.43973 9.40234 2.76785 9.65625C3.14285 9.97266 2.44754 10.8906 2.63113 11.457C2.81863 12.4805 3.62723 13.1797 3.71317 14.2266C3.8616 14.9453 4.40457 15.8242 4.63113 16.2813C4.80301 16.4531 5.27567 16.9492 5.3577 16.9492C5.38895 16.9492 5.36942 16.875 5.24442 16.6758C5.16629 16.4531 4.71317 15.8711 4.93192 15.8711C4.94363 15.8711 4.95535 15.8711 4.97098 15.875C4.70145 15.6016 5.56863 15.6758 4.96317 15.3047C4.89285 15.2188 4.87723 15.1914 4.89285 15.1914C4.91238 15.1914 4.96707 15.2227 5.02957 15.2539C5.09598 15.2852 5.1741 15.3164 5.2366 15.3164C5.33426 15.3164 5.40067 15.25 5.3616 15.0078C5.37723 15.0156 5.39285 15.0156 5.40457 15.0156C5.50613 15.0156 5.47098 14.8164 5.47879 14.6172C5.4866 14.418 5.53738 14.2187 5.81082 14.2187C5.84207 14.2187 5.87723 14.2227 5.91238 14.2266C6.5452 13.8828 5.99442 12.9336 6.72098 12.5859C6.69363 11.7969 5.63504 11.7578 5.2366 11.4375C5.1702 11.4766 5.1077 11.4883 5.0452 11.4883C4.97488 11.4883 4.91238 11.4727 4.8577 11.4531C4.80301 11.4375 4.75223 11.418 4.71707 11.418C4.70926 11.418 4.70145 11.418 4.69363 11.4219C5.37332 11.2422 4.87723 10.2969 4.31473 10.2969C4.30301 10.2969 4.28738 10.2969 4.27567 10.2969C4.2327 9.88672 4.02176 10.043 3.99832 9.70312C3.96317 9.72266 3.92801 9.73047 3.89285 9.73047C3.7991 9.73047 3.71317 9.66406 3.63895 9.60156C3.56473 9.53516 3.50223 9.47266 3.44754 9.47266C3.40457 9.47266 3.36551 9.51563 3.33035 9.64063C3.36942 9.44922 3.3577 9.38672 3.31863 9.38672C3.27957 9.38672 3.20926 9.45312 3.13113 9.51953C3.05692 9.58594 2.97098 9.65234 2.90457 9.65234C2.89676 9.65234 2.89285 9.65234 2.88504 9.65234C2.42801 9.32812 2.88895 8.75391 2.64676 8.3125C2.80301 8.14453 2.86551 7.85938 2.7952 7.85938C2.76004 7.85938 2.68973 7.92969 2.58035 8.12109C2.4241 7.72266 2.83817 6.82031 3.18973 6.76953C3.20145 6.76953 3.20926 6.76562 3.22098 6.76562C3.28348 6.76562 3.34598 6.79687 3.40067 6.86328C3.43192 7.04687 3.35379 7.43359 3.38504 7.43359C3.40067 7.43359 3.43192 7.35547 3.51004 7.15234C3.6116 6.6875 4.32254 6.35156 4.39676 6.06641C4.40067 6.07031 4.40067 6.07031 4.40457 6.07031C4.4866 6.07031 5.01395 5.60547 5.24442 5.55469C5.33426 5.46484 5.39676 5.43359 5.44363 5.43359C5.49442 5.43359 5.52176 5.47266 5.54129 5.50781C5.56082 5.54688 5.57645 5.58203 5.59598 5.58203C5.6116 5.58203 5.63113 5.55859 5.66629 5.49219C5.5452 5.25391 5.8577 5.02734 5.77176 5.02734C5.74051 5.02734 5.64676 5.05859 5.45535 5.13672C5.4241 5.15234 5.40848 5.15625 5.40067 5.15625C5.37723 5.15625 5.47098 5.09375 5.6077 5.03125C5.74442 4.96875 5.91629 4.90625 6.06082 4.90625C6.13113 4.90625 6.19363 4.92188 6.24051 4.96094C6.84598 4.81641 6.51395 4.61719 6.5452 4.61719C6.5452 4.61719 6.5491 4.61719 6.55301 4.61719C6.72488 4.51563 6.6741 4.13281 6.92801 3.89453ZM4.22098 5.49219C4.21317 5.49219 4.24832 5.44141 4.36551 5.29688C4.6077 5.11719 4.80301 4.99609 4.58035 4.87891C4.67801 4.83594 4.77176 4.78516 4.8616 4.73047C4.8577 4.92188 4.69754 5.38672 4.6116 5.38672C4.59207 5.38672 4.57254 5.35938 4.56473 5.30078C4.61551 5.21094 4.61942 5.17578 4.59988 5.17578C4.56863 5.17578 4.47879 5.25391 4.39285 5.33594C4.30692 5.41016 4.22879 5.49219 4.22098 5.49219ZM4.44363 5.59766C4.33817 5.59766 4.3577 5.53125 4.68192 5.46484C4.82254 5.44531 4.71317 5.45313 4.88113 5.41406C4.71707 5.54688 4.53348 5.59766 4.44363 5.59766ZM10.5179 5.20312C10.5647 5.19531 10.5999 5.19531 10.6272 5.19531C10.7405 5.19531 10.6897 5.24219 10.6233 5.28906C10.5569 5.33594 10.4749 5.38281 10.5218 5.38281C10.5491 5.38281 10.6233 5.36719 10.7757 5.32422C11.5452 5.26953 10.4749 4.61719 10.6468 4.39844L10.5999 4.38281C10.2835 4.78516 10.8108 4.79297 10.5179 5.20312ZM10.1975 5.21875C10.2522 5.21875 10.3225 5.15625 10.3968 4.98047C10.4983 4.85938 10.4554 4.84375 10.346 4.78516C10.0452 4.86328 10.0725 5.21875 10.1975 5.21875ZM12.8929 6.45703C12.8811 6.45703 12.8733 6.46094 12.8655 6.46484C12.8968 6.47266 12.928 6.48047 12.9593 6.48047C12.928 6.46484 12.9085 6.45703 12.8929 6.45703ZM18.1389 7.42969C18.2054 7.57422 18.2405 7.63281 18.2444 7.63281C18.2718 7.63281 17.7522 6.36719 17.5374 6.14062C16.4163 4.29687 14.5725 2.88672 12.471 2.35938H12.4671C12.4124 2.35938 12.4749 2.38672 12.5491 2.41406C12.6233 2.44141 12.7132 2.46875 12.7132 2.46875C12.7132 2.46875 12.6546 2.44922 12.4749 2.39844C12.2757 2.33984 12.0725 2.29688 11.8655 2.28125C11.8304 2.29297 12.721 2.64453 13.3186 2.82813C13.1194 2.76563 12.9124 2.71094 12.8616 2.71094C12.8264 2.71094 12.8616 2.73438 13.0061 2.79688C12.8304 2.74609 12.7561 2.72266 12.7483 2.72266C12.7366 2.72266 12.9827 2.80469 13.2132 2.88672C13.4475 2.96875 13.6702 3.05078 13.6077 3.05078C13.5921 3.05078 13.5491 3.04297 13.4827 3.03125C13.6819 3.14063 13.7522 3.18359 13.7405 3.18359C13.721 3.18359 13.4749 3.06641 13.221 2.94922C12.971 2.83203 12.7171 2.71484 12.6819 2.71484C12.6624 2.71484 12.7132 2.75391 12.885 2.85547C13.1194 2.95703 13.3538 3.05859 13.2874 3.05859C13.2561 3.05859 13.1663 3.03906 12.9905 2.98828C13.3811 3.1875 12.7132 3.10938 12.9397 3.37891C12.8147 3.26172 12.7639 3.22266 12.7522 3.22266C12.7405 3.22266 12.7718 3.26953 12.803 3.31641C12.8343 3.36328 12.8577 3.41016 12.8304 3.41016C12.8264 3.41016 12.8264 3.41016 12.8225 3.41016C13.096 3.70703 12.6311 3.44141 12.9632 3.70703C12.7132 3.59375 12.2874 3.40625 12.4788 3.40625C12.5257 3.40625 12.6155 3.41797 12.7561 3.44922C12.5022 3.15234 11.7835 3.14063 11.7679 3.10547C11.5882 3.11719 11.5843 3.25391 11.6155 3.50391C11.6116 3.89844 11.2249 3.90625 11.2757 4.13281C11.2757 4.12891 11.2796 4.12891 11.2796 4.12891C11.2874 4.12891 11.2913 4.20703 11.3147 4.28906C11.3421 4.36719 11.3889 4.44922 11.4905 4.44922C11.5452 4.44922 11.6155 4.42578 11.7014 4.36719C11.8225 4.58594 11.9319 4.66406 12.0179 4.66406C12.1468 4.66406 12.2249 4.48828 12.2171 4.32812C12.0764 4.25 11.8929 3.60156 12.096 3.60156C12.1272 3.60156 12.1663 3.61719 12.2171 3.65234C11.9007 4.42969 13.4671 3.91016 12.5804 4.26562C12.7796 4.52734 12.4554 4.51562 12.5491 4.83203C12.3968 4.875 12.2288 4.91406 12.0804 4.91406C11.8616 4.91406 11.6936 4.82031 11.7132 4.49219C11.4397 4.63672 11.9866 5.125 11.4436 5.125H11.4124C11.1507 5.60547 10.1702 5.44141 10.9397 5.94922C10.9827 6.17188 10.8421 6.21094 10.6624 6.21094C10.6155 6.21094 10.5647 6.20703 10.5139 6.20313C10.4632 6.19922 10.4124 6.19922 10.3655 6.19922C10.1624 6.19922 10.0179 6.25 10.1429 6.56641C10.053 6.89453 10.2639 7.03906 10.5218 7.03906C10.8343 7.03906 11.2171 6.83594 11.2444 6.5C11.4124 6.24609 11.6272 6.14062 11.8499 6.14062C12.2014 6.14062 12.5725 6.40625 12.8147 6.73437C12.8343 6.76562 12.8499 6.77734 12.8577 6.77734C12.8772 6.77734 12.8577 6.69922 12.8499 6.62109C12.8421 6.55859 12.8421 6.49609 12.8655 6.47656C12.5179 6.37891 12.2522 5.95703 12.3694 5.95703C12.4085 5.95703 12.4905 6.00391 12.6233 6.12891C12.6311 6.12891 12.6389 6.12891 12.6429 6.12891C12.8616 6.12891 13.0335 6.30078 13.1663 6.47266C13.303 6.64453 13.4046 6.81641 13.4944 6.81641C13.5296 6.81641 13.5647 6.78516 13.596 6.71484C13.5804 6.69141 13.5413 6.625 13.5218 6.55859C13.4983 6.47656 13.4983 6.39453 13.6038 6.39453C13.6468 6.39453 13.7054 6.41016 13.7874 6.44141C14.053 6.37109 13.6194 5.67969 13.971 5.67969C14.0061 5.67969 14.0491 5.6875 14.1038 5.70313C14.0999 5.82422 14.1546 5.86719 14.2054 5.86719C14.3069 5.86719 14.4085 5.72266 14.1624 5.67969C14.2561 5.58984 14.3108 5.55469 14.3499 5.55469C14.4866 5.55469 14.3772 6.00781 14.8499 6.00781C15.01 6.38672 13.4593 6.03516 13.9554 6.76172C14.0686 6.84375 14.2093 6.85937 14.346 6.85937C14.3889 6.85937 14.428 6.85938 14.4671 6.85547C14.5061 6.85547 14.5452 6.85156 14.5804 6.85156C14.8225 6.85156 14.9944 6.91016 14.8889 7.41016C14.76 7.50391 14.6155 7.53516 14.4671 7.53516C14.3343 7.53516 14.2014 7.51172 14.0725 7.48828C13.9436 7.46484 13.8186 7.44141 13.7054 7.44141C13.5296 7.44141 13.3889 7.5 13.303 7.70312C12.846 7.51562 12.2444 7.50781 12.303 6.94141C11.5061 7.05469 10.6741 6.99609 10.0882 7.48437C10.053 8.19922 8.82645 8.42969 9.12332 9.24219C8.76785 9.99219 9.55301 11.043 10.3538 11.043C10.3811 11.043 10.4124 11.043 10.4397 11.0391C10.8772 11.0352 11.3186 10.8398 11.7054 10.8398C11.9046 10.8398 12.0843 10.8906 12.2405 11.0469C12.2757 11.043 12.3069 11.0391 12.3343 11.0391C12.9319 11.0391 12.1429 11.9883 12.8577 12.1484C13.5061 12.8203 12.4593 13.5117 12.971 14.1563C13.0257 14.6602 13.2757 15.082 13.2757 15.5742C13.3421 15.582 13.4046 15.5859 13.471 15.5859C14.2952 15.5859 14.8108 14.8672 15.2952 14.3242C15.1468 13.5117 16.4475 13.3516 16.0022 12.4414C15.7952 11.4453 16.9827 10.8555 16.9163 9.85937C16.928 9.71875 16.8889 9.67578 16.8304 9.67578C16.7718 9.67578 16.6858 9.71875 16.6038 9.75781C16.5179 9.80078 16.4241 9.83984 16.3499 9.83984C16.2522 9.83984 16.178 9.77344 16.1702 9.55469C15.596 9.01953 15.3343 8.29297 14.7991 7.70312C15.4944 8.03906 15.8889 8.79688 16.2093 9.48438C16.2366 9.49219 16.2639 9.49609 16.2952 9.49609C16.8616 9.49609 17.6507 8.14063 16.7913 7.8125C16.7444 7.94141 16.6819 7.98828 16.6077 7.98828C16.4788 7.98828 16.3304 7.83203 16.2249 7.67969C16.1194 7.52344 16.0647 7.36719 16.1233 7.36719C16.1624 7.36719 16.2483 7.42969 16.3968 7.59375C16.5647 7.69922 16.7288 7.72656 16.9007 7.72656C17.0686 7.72656 17.2405 7.69922 17.4202 7.68359C17.6468 7.77344 17.7444 8.0625 17.8147 8.0625C17.8264 8.0625 17.8421 8.05078 17.8538 8.02344C18.0335 8.45312 18.2405 9.21875 18.428 9.42578C18.3304 8.76953 18.3069 8.07422 18.1389 7.42969ZM15.9593 6.52734C15.5179 6.41406 15.3733 5.86719 15.0257 5.55078C15.0218 5.46484 15.1507 5.48047 15.1194 5.33594C15.5882 5.48047 15.4358 5.625 15.3929 5.65234C15.5647 5.9375 16.0452 6.13281 15.9593 6.52734ZM9.89285 3.55469C9.46707 3.67969 9.40848 3.54297 9.4827 3.80469C9.51395 3.82812 9.57254 3.83594 9.63113 3.83594C9.83817 3.83984 10.1194 3.71875 9.89285 3.55469ZM16.1468 14.3164C16.7054 13.8437 16.7757 13.2813 16.803 12.7109C16.553 13.1992 15.8108 13.7383 16.1468 14.3164ZM13.6038 6.69922C13.5999 6.70313 13.5999 6.70312 13.5999 6.70703C13.6038 6.71484 13.6077 6.71484 13.6077 6.71484C13.6077 6.71484 13.6077 6.71094 13.6038 6.69922ZM10.3811 0.476562C4.8577 0.476562 0.381134 4.95313 0.381134 10.4766C0.381134 16 4.8577 20.4766 10.3811 20.4766C15.9046 20.4766 20.3811 16 20.3811 10.4766C20.3811 4.95313 15.9046 0.476562 10.3811 0.476562ZM10.3811 19.707C5.28348 19.707 1.15067 15.5742 1.15067 10.4766C1.15067 5.37891 5.28348 1.24609 10.3811 1.24609C15.4788 1.24609 19.6116 5.37891 19.6116 10.4766C19.6116 15.5742 15.4788 19.707 10.3811 19.707Z" fill="#67B774"/>
</svg>
