<svg width="12" height="16" viewBox="0 0 12 16" fill="none" xmlns="http://www.w3.org/2000/svg">
<path fill-rule="evenodd" clip-rule="evenodd" d="M7.41993 0.87793V5.42563H11.9676V14.7604C11.9676 14.8873 11.9172 15.0091 11.8274 15.0989C11.7377 15.1887 11.6159 15.2391 11.4889 15.2391H0.478705C0.351745 15.2391 0.229984 15.1887 0.14021 15.0989C0.0504349 15.0091 0 14.8873 0 14.7604V1.35663C0 1.22967 0.0504349 1.10791 0.14021 1.01814C0.229984 0.928365 0.351745 0.87793 0.478705 0.87793H7.41993ZM5.02641 4.70757H2.87223C2.80875 4.70757 2.74787 4.73279 2.70298 4.77768C2.6581 4.82256 2.63288 4.88344 2.63288 4.94692C2.63288 5.01041 2.6581 5.07129 2.70298 5.11617C2.74787 5.16106 2.80875 5.18628 2.87223 5.18628H5.02641C5.08989 5.18628 5.15077 5.16106 5.19565 5.11617C5.24054 5.07129 5.26576 5.01041 5.26576 4.94692C5.26576 4.88344 5.24054 4.82256 5.19565 4.77768C5.15077 4.73279 5.08989 4.70757 5.02641 4.70757ZM2.87223 12.3669H9.0954C9.15888 12.3669 9.21976 12.3416 9.26465 12.2968C9.30954 12.2519 9.33475 12.191 9.33475 12.1275C9.33475 12.064 9.30954 12.0031 9.26465 11.9583C9.21976 11.9134 9.15888 11.8882 9.0954 11.8882H2.87223C2.80875 11.8882 2.74787 11.9134 2.70298 11.9583C2.6581 12.0031 2.63288 12.064 2.63288 12.1275C2.63288 12.191 2.6581 12.2519 2.70298 12.2968C2.74787 12.3416 2.80875 12.3669 2.87223 12.3669ZM2.87223 9.97333H9.0954C9.15888 9.97333 9.21976 9.94811 9.26465 9.90323C9.30954 9.85834 9.33475 9.79746 9.33475 9.73398C9.33475 9.6705 9.30954 9.60962 9.26465 9.56473C9.21976 9.51984 9.15888 9.49463 9.0954 9.49463H2.87223C2.80875 9.49463 2.74787 9.51984 2.70298 9.56473C2.6581 9.60962 2.63288 9.6705 2.63288 9.73398C2.63288 9.79746 2.6581 9.85834 2.70298 9.90323C2.74787 9.94811 2.80875 9.97333 2.87223 9.97333ZM2.87223 7.5798H9.0954C9.15888 7.5798 9.21976 7.55459 9.26465 7.5097C9.30954 7.46481 9.33475 7.40393 9.33475 7.34045C9.33475 7.27697 9.30954 7.21609 9.26465 7.1712C9.21976 7.12632 9.15888 7.1011 9.0954 7.1011H2.87223C2.80875 7.1011 2.74787 7.12632 2.70298 7.1712C2.6581 7.21609 2.63288 7.27697 2.63288 7.34045C2.63288 7.40393 2.6581 7.46481 2.70298 7.5097C2.74787 7.55459 2.80875 7.5798 2.87223 7.5798ZM7.8994 4.94729V1.01855L11.8281 4.94729H7.8994Z" fill="#F1B562"/>
</svg>
