<svg width="100" height="100" viewBox="0 0 100 100" fill="none" xmlns="http://www.w3.org/2000/svg">
<rect width="100" height="100" rx="50" fill="#AAACAE"/>
<g clip-path="url(#clip0_2374_6659)">
<rect x="3.125" y="3.125" width="93.75" height="93.75" rx="46.875" fill="white"/>
<path fill-rule="evenodd" clip-rule="evenodd" d="M33.956 41.5032C33.956 37.1262 35.6947 32.9286 38.7896 29.8337C41.8846 26.7387 46.0822 25 50.4591 25C54.8361 25 59.0337 26.7387 62.1286 29.8337C65.2236 32.9286 66.9623 37.1262 66.9623 41.5032C66.9623 45.8801 65.2236 50.0777 62.1286 53.1726C59.0337 56.2676 54.8361 58.0063 50.4591 58.0063C46.0822 58.0063 41.8846 56.2676 38.7896 53.1726C35.6947 50.0777 33.956 45.8801 33.956 41.5032ZM39.3412 66.6922C34.2272 66.6922 29.3225 68.7237 25.7063 72.3399C22.0902 75.9561 20.0586 80.8607 20.0586 85.9748C20.0586 89.6146 21.5045 93.1052 24.0782 95.6789C26.6519 98.2526 30.1425 99.6985 33.7823 99.6985H67.136C70.7758 99.6985 74.2664 98.2526 76.8401 95.6789C79.4138 93.1052 80.8597 89.6146 80.8597 85.9748C80.8597 83.4426 80.3609 80.9351 79.3919 78.5957C78.4228 76.2562 77.0025 74.1305 75.2119 72.3399C73.4214 70.5494 71.2957 69.129 68.9562 68.16C66.6167 67.1909 64.1093 66.6922 61.5771 66.6922H39.3412Z" fill="#AAACAE"/>
</g>
<defs>
<clipPath id="clip0_2374_6659">
<rect x="3.125" y="3.125" width="93.75" height="93.75" rx="46.875" fill="white"/>
</clipPath>
</defs>
</svg>
