<svg width="50" height="50" viewBox="0 0 50 50" fill="none" xmlns="http://www.w3.org/2000/svg">
<rect width="50" height="50" rx="25" fill="#E5E8E6"/>
<g clip-path="url(#clip0_2382_6377)">
<rect x="2.5" y="2.5" width="45" height="45" rx="22.5" fill="#548CFF"/>
<path fill-rule="evenodd" clip-rule="evenodd" d="M16.6577 19.0842C16.6577 16.8718 17.5366 14.75 19.101 13.1855C20.6655 11.6211 22.7873 10.7422 24.9998 10.7422C27.2122 10.7422 29.334 11.6211 30.8985 13.1855C32.4629 14.75 33.3418 16.8718 33.3418 19.0842C33.3418 21.2967 32.4629 23.4185 30.8985 24.983C29.334 26.5474 27.2122 27.4263 24.9998 27.4263C22.7873 27.4263 20.6655 26.5474 19.101 24.983C17.5366 23.4185 16.6577 21.2967 16.6577 19.0842ZM19.3798 31.8169C16.7948 31.8169 14.3156 32.8438 12.4877 34.6717C10.6597 36.4996 9.63281 38.9788 9.63281 41.5639C9.63281 43.4037 10.3637 45.1682 11.6646 46.4692C12.9656 47.7701 14.7301 48.501 16.5699 48.501H33.4296C35.2695 48.501 37.0339 47.7701 38.3349 46.4692C39.6358 45.1682 40.3667 43.4037 40.3667 41.5639C40.3667 40.2839 40.1146 39.0164 39.6248 37.8339C39.1349 36.6513 38.417 35.5768 37.5119 34.6717C36.6068 33.7666 35.5323 33.0486 34.3497 32.5588C33.1671 32.069 31.8997 31.8169 30.6197 31.8169H19.3798Z" fill="white"/>
</g>
<defs>
<clipPath id="clip0_2382_6377">
<rect x="2.5" y="2.5" width="45" height="45" rx="22.5" fill="white"/>
</clipPath>
</defs>
</svg>
