<svg width="26" height="26" viewBox="0 0 26 26" fill="none" xmlns="http://www.w3.org/2000/svg">
<g clip-path="url(#clip0_2374_6640)">
<rect x="0.400391" y="0.400391" width="25.2" height="25.2" rx="12.6" fill="#C6623B"/>
<path fill-rule="evenodd" clip-rule="evenodd" d="M8.32847 9.68718C8.32847 8.4482 8.82065 7.25998 9.69674 6.38389C10.5728 5.5078 11.761 5.01563 13 5.01562C14.239 5.01562 15.4272 5.5078 16.3033 6.38389C17.1794 7.25998 17.6716 8.4482 17.6716 9.68718C17.6716 10.9262 17.1794 12.1144 16.3033 12.9905C15.4272 13.8665 14.239 14.3587 13 14.3587C11.761 14.3587 10.5728 13.8665 9.69674 12.9905C8.82065 12.1144 8.32847 10.9262 8.32847 9.68718ZM9.85287 16.8174C8.40523 16.8174 7.01688 17.3925 5.99324 18.4162C4.9696 19.4398 4.39453 20.8281 4.39453 22.2758C4.39453 23.3061 4.80382 24.2942 5.53235 25.0227C6.26089 25.7513 7.24899 26.1605 8.2793 26.1605H17.7207C18.7511 26.1605 19.7392 25.7513 20.4677 25.0227C21.1962 24.2942 21.6055 23.3061 21.6055 22.2758C21.6055 21.559 21.4643 20.8492 21.19 20.187C20.9157 19.5247 20.5137 18.923 20.0068 18.4162C19.5 17.9093 18.8982 17.5072 18.236 17.2329C17.5738 16.9586 16.864 16.8174 16.1472 16.8174H9.85287Z" fill="white"/>
</g>
<defs>
<clipPath id="clip0_2374_6640">
<rect x="0.400391" y="0.400391" width="25.2" height="25.2" rx="12.6" fill="white"/>
</clipPath>
</defs>
</svg>
